# xmcd
#
# Track frame offsets:
#	150
#	11259
#	21261
#	36605
#	51045
#	67307
#	77251
#	87352
#	101736
#	111704
#	130187
#	145033
#	161425
#	174965
#	187903
#	201378
#
# Disc length: 3451 seconds
#
# Revision: 1
# Processed by: cddbd v1.4PL0 Copyright (c) Steve Scherf et al.
# Submitted via: audiograbber 1.82.02
#
DISCID=d90d7910
DTITLE=Carl Martin - Crow Jane Blues
DYEAR=1997
DGENRE=Blues
TTITLE0=Crow Jane Blues
TTITLE1=Corrina, Corrina
TTITLE2=Trouble on Your Hand #2
TTITLE3=State Street Pimp #2
TTITLE4=Grave Digger Blues
TTITLE5=Worried All the Time
TTITLE6=Liza Jane
TTITLE7=Good Morning Judge
TTITLE8=John Henry
TTITLE9=West Virginia Blues
TTITLE10=Trouble On Your Hand #1
TTITLE11=Everyday I Have the Blues
TTITLE12=Frankie and Johnny
TTITLE13=State Street Pimp #1
TTITLE14=Railroad Blues
TTITLE15=You Can't Beat the Syndicate
EXTD=
EXTT0=
EXTT1=
EXTT2=
EXTT3=
EXTT4=
EXTT5=
EXTT6=
EXTT7=
EXTT8=
EXTT9=
EXTT10=
EXTT11=
EXTT12=
EXTT13=
EXTT14=
EXTT15=
PLAYORDER=
